<svg xmlns="http://www.w3.org/2000/svg" width="1000" height="540" viewBox="0 0 1000 540" font-family="Helvetica, Arial, sans-serif">
<rect width="1000" height="540" fill="#fcfcfb"/>
<text x="80" y="32" font-size="17" font-weight="600" fill="#0b0b0b">Precision vs recall on planted résumé defects</text>
<clipPath id="plot"><rect x="80" y="60" width="640" height="420"/></clipPath>
<line x1="80.0" y1="60" x2="80.0" y2="480" stroke="#e6e5e0"/><text x="80.0" y="498" font-size="11" fill="#52514e" text-anchor="middle">0.55</text>
<line x1="171.4" y1="60" x2="171.4" y2="480" stroke="#e6e5e0"/><text x="171.4" y="498" font-size="11" fill="#52514e" text-anchor="middle">0.60</text>
<line x1="262.9" y1="60" x2="262.9" y2="480" stroke="#e6e5e0"/><text x="262.9" y="498" font-size="11" fill="#52514e" text-anchor="middle">0.65</text>
<line x1="354.3" y1="60" x2="354.3" y2="480" stroke="#e6e5e0"/><text x="354.3" y="498" font-size="11" fill="#52514e" text-anchor="middle">0.70</text>
<line x1="445.7" y1="60" x2="445.7" y2="480" stroke="#e6e5e0"/><text x="445.7" y="498" font-size="11" fill="#52514e" text-anchor="middle">0.75</text>
<line x1="537.1" y1="60" x2="537.1" y2="480" stroke="#e6e5e0"/><text x="537.1" y="498" font-size="11" fill="#52514e" text-anchor="middle">0.80</text>
<line x1="628.6" y1="60" x2="628.6" y2="480" stroke="#e6e5e0"/><text x="628.6" y="498" font-size="11" fill="#52514e" text-anchor="middle">0.85</text>
<line x1="720.0" y1="60" x2="720.0" y2="480" stroke="#e6e5e0"/><text x="720.0" y="498" font-size="11" fill="#52514e" text-anchor="middle">0.90</text>
<line x1="80" y1="480.0" x2="720" y2="480.0" stroke="#e6e5e0"/><text x="72" y="484.0" font-size="11" fill="#52514e" text-anchor="end">0.85</text>
<line x1="80" y1="396.0" x2="720" y2="396.0" stroke="#e6e5e0"/><text x="72" y="400.0" font-size="11" fill="#52514e" text-anchor="end">0.88</text>
<line x1="80" y1="312.0" x2="720" y2="312.0" stroke="#e6e5e0"/><text x="72" y="316.0" font-size="11" fill="#52514e" text-anchor="end">0.91</text>
<line x1="80" y1="228.0" x2="720" y2="228.0" stroke="#e6e5e0"/><text x="72" y="232.0" font-size="11" fill="#52514e" text-anchor="end">0.94</text>
<line x1="80" y1="144.0" x2="720" y2="144.0" stroke="#e6e5e0"/><text x="72" y="148.0" font-size="11" fill="#52514e" text-anchor="end">0.97</text>
<line x1="80" y1="60.0" x2="720" y2="60.0" stroke="#e6e5e0"/><text x="72" y="64.0" font-size="11" fill="#52514e" text-anchor="end">1.00</text>
<polyline clip-path="url(#plot)" points="80.0,165.0 83.7,182.0 87.3,198.6 91.0,215.0 94.6,231.0 98.3,246.7 101.9,262.1 105.6,277.2 109.3,292.0 112.9,306.6 116.6,320.9 120.2,335.0 123.9,348.8 127.5,362.3 131.2,375.6 134.9,388.7 138.5,401.6 142.2,414.2 145.8,426.6 149.5,438.8 153.1,450.8 156.8,462.6 160.5,474.3 164.1,485.7 167.8,496.9 171.4,508.0 175.1,518.9 178.7,529.6" fill="none" stroke="#b5b3aa" stroke-width="1" stroke-dasharray="4 4"/>
<polyline clip-path="url(#plot)" points="160.5,12.1 164.1,28.3 167.8,44.3 171.4,60.0 175.1,75.4 178.7,90.6 182.4,105.5 186.1,120.1 189.7,134.5 193.4,148.6 197.0,162.5 200.7,176.2 204.3,189.6 208.0,202.9 211.7,215.9 215.3,228.7 219.0,241.3 222.6,253.7 226.3,265.9 229.9,277.9 233.6,289.7 237.3,301.4 240.9,312.9 244.6,324.2 248.2,335.3 251.9,346.2 255.5,357.0 259.2,367.7 262.9,378.2 266.5,388.5 270.2,398.7 273.8,408.8 277.5,418.7 281.1,428.4 284.8,438.0 288.5,447.5 292.1,456.9 295.8,466.1 299.4,475.3 303.1,484.2 306.7,493.1 310.4,501.9 314.1,510.5 317.7,519.0 321.4,527.4 325.0,535.7" fill="none" stroke="#b5b3aa" stroke-width="1" stroke-dasharray="4 4"/>
<text x="175.4" y="72" font-size="10" fill="#8a8880">F1 0.75</text>
<polyline clip-path="url(#plot)" points="281.1,16.9 284.8,30.1 288.5,43.0 292.1,55.8 295.8,68.4 299.4,80.7 303.1,92.9 306.7,105.0 310.4,116.8 314.1,128.5 317.7,140.0 321.4,151.3 325.0,162.5 328.7,173.6 332.3,184.4 336.0,195.2 339.7,205.8 343.3,216.2 347.0,226.5 350.6,236.6 354.3,246.7 357.9,256.6 361.6,266.3 365.3,275.9 368.9,285.5 372.6,294.8 376.2,304.1 379.9,313.2 383.5,322.3 387.2,331.2 390.9,340.0 394.5,348.7 398.2,357.3 401.8,365.8 405.5,374.1 409.1,382.4 412.8,390.6 416.5,398.7 420.1,406.7 423.8,414.6 427.4,422.4 431.1,430.1 434.7,437.7 438.4,445.2 442.1,452.6 445.7,460.0 449.4,467.3 453.0,474.5 456.7,481.6 460.3,488.6 464.0,495.6 467.7,502.4 471.3,509.2 475.0,516.0 478.6,522.6 482.3,529.2 485.9,535.7" fill="none" stroke="#b5b3aa" stroke-width="1" stroke-dasharray="4 4"/>
<text x="297.3" y="72" font-size="10" fill="#8a8880">F1 0.80</text>
<polyline clip-path="url(#plot)" points="409.1,11.8 412.8,22.6 416.5,33.3 420.1,43.8 423.8,54.2 427.4,64.4 431.1,74.6 434.7,84.6 438.4,94.5 442.1,104.2 445.7,113.8 449.4,123.4 453.0,132.8 456.7,142.1 460.3,151.2 464.0,160.3 467.7,169.3 471.3,178.1 475.0,186.9 478.6,195.5 482.3,204.1 485.9,212.5 489.6,220.9 493.3,229.1 496.9,237.3 500.6,245.4 504.2,253.3 507.9,261.2 511.5,269.0 515.2,276.7 518.9,284.4 522.5,291.9 526.2,299.4 529.8,306.8 533.5,314.1 537.1,321.3 540.8,328.5 544.5,335.6 548.1,342.6 551.8,349.5 555.4,356.4 559.1,363.2 562.7,369.9 566.4,376.5 570.1,383.1 573.7,389.6 577.4,396.1 581.0,402.5 584.7,408.8 588.3,415.0 592.0,421.2 595.7,427.4 599.3,433.4 603.0,439.5 606.6,445.4 610.3,451.3 613.9,457.2 617.6,463.0 621.3,468.7 624.9,474.4 628.6,480.0 632.2,485.6 635.9,491.1 639.5,496.6 643.2,502.0 646.9,507.4 650.5,512.7 654.2,517.9 657.8,523.2 661.5,528.4 665.1,533.5" fill="none" stroke="#b5b3aa" stroke-width="1" stroke-dasharray="4 4"/>
<text x="429.8" y="72" font-size="10" fill="#8a8880">F1 0.85</text>
<polyline clip-path="url(#plot)" points="548.1,7.3 551.8,16.2 555.4,25.0 559.1,33.7 562.7,42.3 566.4,50.8 570.1,59.2 573.7,67.6 577.4,75.8 581.0,84.0 584.7,92.0 588.3,100.0 592.0,107.9 595.7,115.7 599.3,123.4 603.0,131.1 606.6,138.7 610.3,146.2 613.9,153.6 617.6,160.9 621.3,168.2 624.9,175.4 628.6,182.5 632.2,189.6 635.9,196.5 639.5,203.4 643.2,210.3 646.9,217.1 650.5,223.8 654.2,230.4 657.8,237.0 661.5,243.5 665.1,250.0 668.8,256.4 672.5,262.7 676.1,269.0 679.8,275.2 683.4,281.4 687.1,287.5 690.7,293.5 694.4,299.5 698.1,305.5 701.7,311.4 705.4,317.2 709.0,323.0 712.7,328.7 716.3,334.4 720.0,340.0" fill="none" stroke="#b5b3aa" stroke-width="1" stroke-dasharray="4 4"/>
<text x="574.4" y="72" font-size="10" fill="#8a8880">F1 0.90</text>
<text x="400.0" y="522" font-size="12" fill="#0b0b0b" text-anchor="middle">Recall</text>
<text transform="translate(26,270.0) rotate(-90)" font-size="12" fill="#0b0b0b" text-anchor="middle">Precision</text>
<line x1="316.4" y1="119.7" x2="398.7" y2="119.7" stroke="#eb6834" stroke-width="2"/><line x1="357.6" y1="148.4" x2="357.6" y2="90.9" stroke="#eb6834" stroke-width="2"/>
<circle cx="357.6" cy="119.7" r="5.5" fill="#eb6834" stroke="#fcfcfb" stroke-width="2"><title>sol: recall 0.702, precision 0.979, F1 0.810</title></circle>
<line x1="308.3" y1="167.3" x2="400.3" y2="167.3" stroke="#1baf7a" stroke-width="2"/><line x1="354.3" y1="231.3" x2="354.3" y2="103.4" stroke="#1baf7a" stroke-width="2"/>
<circle cx="354.3" cy="167.3" r="5.5" fill="#1baf7a" stroke="#fcfcfb" stroke-width="2"><title>luna: recall 0.700, precision 0.962, F1 0.801</title></circle>
<line x1="252.1" y1="141.7" x2="365.0" y2="141.7" stroke="#eda100" stroke-width="2"/><line x1="308.6" y1="198.5" x2="308.6" y2="84.8" stroke="#eda100" stroke-width="2"/>
<circle cx="308.6" cy="141.7" r="5.5" fill="#eda100" stroke="#fcfcfb" stroke-width="2"><title>LLMInternSkill (luna): recall 0.675, precision 0.971, F1 0.786</title></circle>
<line x1="199.7" y1="135.6" x2="299.9" y2="135.6" stroke="#e87ba4" stroke-width="2"/><line x1="249.8" y1="196.7" x2="249.8" y2="74.4" stroke="#e87ba4" stroke-width="2"/>
<circle cx="249.8" cy="135.6" r="5.5" fill="#e87ba4" stroke="#fcfcfb" stroke-width="2"><title>cyber-resume-reviewer (luna): recall 0.643, precision 0.973, F1 0.763</title></circle>
<line x1="180.0" y1="235.0" x2="293.5" y2="235.0" stroke="#008300" stroke-width="2"/><line x1="236.7" y1="377.5" x2="236.7" y2="92.5" stroke="#008300" stroke-width="2"/>
<circle cx="236.7" cy="235.0" r="5.5" fill="#008300" stroke="#fcfcfb" stroke-width="2"><title>ResumeSkills (luna): recall 0.636, precision 0.938, F1 0.731</title></circle>
<line x1="546.7" y1="134.8" x2="605.9" y2="134.8" stroke="#2a78d6" stroke-width="2"/><line x1="576.3" y1="179.0" x2="576.3" y2="90.5" stroke="#2a78d6" stroke-width="2"/>
<circle cx="576.3" cy="134.8" r="7" fill="#2a78d6" stroke="#fcfcfb" stroke-width="2"><title>ResumePilot (luna): recall 0.821, precision 0.973, F1 0.887</title></circle>
<circle cx="750" cy="68" r="5" fill="#2a78d6"/><text x="762" y="72" font-size="12" fill="#0b0b0b">ResumePilot (luna)</text><text x="762" y="87" font-size="11" fill="#52514e">F1 0.887 · R 0.82 · P 0.97</text>
<circle cx="750" cy="112" r="5" fill="#eb6834"/><text x="762" y="116" font-size="12" fill="#0b0b0b">sol</text><text x="762" y="131" font-size="11" fill="#52514e">F1 0.810 · R 0.70 · P 0.98</text>
<circle cx="750" cy="156" r="5" fill="#1baf7a"/><text x="762" y="160" font-size="12" fill="#0b0b0b">luna</text><text x="762" y="175" font-size="11" fill="#52514e">F1 0.801 · R 0.70 · P 0.96</text>
<circle cx="750" cy="200" r="5" fill="#eda100"/><text x="762" y="204" font-size="12" fill="#0b0b0b">LLMInternSkill (luna)</text><text x="762" y="219" font-size="11" fill="#52514e">F1 0.786 · R 0.68 · P 0.97</text>
<circle cx="750" cy="244" r="5" fill="#e87ba4"/><text x="762" y="248" font-size="12" fill="#0b0b0b">cyber-resume-reviewer (luna)</text><text x="762" y="263" font-size="11" fill="#52514e">F1 0.763 · R 0.64 · P 0.97</text>
<circle cx="750" cy="288" r="5" fill="#008300"/><text x="762" y="292" font-size="12" fill="#0b0b0b">ResumeSkills (luna)</text><text x="762" y="307" font-size="11" fill="#52514e">F1 0.731 · R 0.64 · P 0.94</text>
</svg>